<svg xmlns="http://www.w3.org/2000/svg" viewBox="0 0 1400 940" role="img" aria-label="City page sponsor placements with stacked shared sponsors"><defs><style>.bg{fill:#f6f7fb}.page{fill:#fff;stroke:#d5d9e2;stroke-width:2}.nav{fill:#111827}.navText{fill:#fff;font:600 22px ui-sans-serif,system-ui}.h1{fill:#111827;font:900 40px ui-sans-serif,system-ui}.sub{fill:#4b5563;font:400 20px ui-sans-serif,system-ui}.pill{fill:#eef2ff;stroke:#c7d2fe;stroke-width:2}.pillText{fill:#3730a3;font:800 16px ui-sans-serif,system-ui}.slot{fill:#f9fafb;stroke:#cbd5e1;stroke-width:2;stroke-dasharray:10 8}.slotLabel{fill:#0f172a;font:900 18px ui-sans-serif,system-ui}.card{fill:#fff;stroke:#e5e7eb;stroke-width:2}.title{fill:#111827;font:900 18px ui-sans-serif,system-ui}.disc{fill:#fff7ed;stroke:#fed7aa;stroke-width:2}.discText{fill:#9a3412;font:900 13px ui-sans-serif,system-ui}.tag{fill:#f0fdf4;stroke:#86efac;stroke-width:2}.tagText{fill:#166534;font:900 13px ui-sans-serif,system-ui}.section{fill:#fff;stroke:#edf2f7;stroke-width:2}.sectionTitle{fill:#111827;font:900 22px ui-sans-serif,system-ui}.line{stroke:#e5e7eb;stroke-width:2}</style></defs><rect class="bg" width="1400" height="940"/><rect class="page" x="80" y="60" width="1240" height="820" rx="18"/><rect class="nav" x="80" y="60" width="1240" height="70" rx="18"/><text class="navText" x="120" y="105">Local Citys</text><text class="navText" x="1035" y="105">City</text><text class="h1" x="120" y="205">Providers in Austin, TX</text><text class="sub" x="120" y="240">Editorial guide • evaluation framework • FAQs</text><rect class="pill" x="120" y="260" width="230" height="34" rx="17"/><text class="pillText" x="135" y="283">Inventory: City Page</text><rect class="slot" x="120" y="310" width="1160" height="220" rx="16"/><text class="slotLabel" x="140" y="345">Top Placement (Hero Position)</text><rect class="card" x="160" y="360" width="1080" height="60" rx="14"/><rect class="disc" x="180" y="375" width="120" height="30" rx="15"/><text class="discText" x="194" y="395">SPONSORED</text><text class="title" x="320" y="398">Sponsor A — Serving Your Location</text><rect class="tag" x="1030" y="375" width="210" height="30" rx="15"/><text class="tagText" x="1046" y="395">Shared placement (stacked)</text><rect class="card" x="160" y="430" width="1080" height="60" rx="14"/><rect class="disc" x="180" y="445" width="120" height="30" rx="15"/><text class="discText" x="194" y="465">SPONSORED</text><text class="title" x="320" y="468">Sponsor B — Serving Your Location</text><rect class="section" x="120" y="550" width="1160" height="210" rx="18"/><text class="sectionTitle" x="150" y="600">Editorial content</text><line class="line" x1="150" y1="618" x2="1250" y2="618"/><rect class="slot" x="120" y="780" width="1160" height="100" rx="16"/><text class="slotLabel" x="140" y="815">Bottom Placement</text><rect class="card" x="160" y="825" width="1080" height="50" rx="14"/><rect class="disc" x="180" y="835" width="120" height="30" rx="15"/><text class="discText" x="194" y="855">SPONSORED</text><text class="title" x="320" y="857">Sponsor — Serving Your Location</text></svg>
